<?xml version="1.0" standalone="no"?>
<!DOCTYPE svg PUBLIC "-//W3C//DTD SVG 20010904//EN"
 "http://www.w3.org/TR/2001/REC-SVG-20010904/DTD/svg10.dtd">
<svg version="1.0" xmlns="http://www.w3.org/2000/svg"
 width="742.000000pt" height="742.000000pt" viewBox="0 0 742.000000 742.000000"
 preserveAspectRatio="xMidYMid meet">
<metadata>
Created by potrace 1.14, written by Peter Selinger 2001-2017
</metadata>
<g transform="translate(0.000000,742.000000) scale(0.100000,-0.100000)"
fill="#000000" stroke="none">
<path d="M957 6887 c-482 -278 -703 -410 -713 -427 -11 -21 -13 -402 -14
-2385 l0 -2360 23 -26 c12 -15 638 -381 1391 -814 1131 -650 1376 -788 1406
-788 30 0 276 138 1406 788 753 433 1379 798 1392 812 l22 24 0 763 0 764 664
382 c485 280 668 390 680 411 14 24 16 106 16 829 0 870 2 835 -53 870 -41 25
-1332 767 -1366 784 -22 12 -44 16 -65 12 -49 -10 -1406 -796 -1430 -829 -21
-28 -21 -39 -26 -789 l-5 -760 -554 -319 c-305 -176 -558 -319 -562 -319 -5 0
-9 655 -9 1463 -1 1215 -3 1466 -14 1487 -10 16 -235 152 -712 427 -602 347
-705 403 -739 403 -35 0 -136 -55 -738 -403z m1321 -173 l543 -312 -68 -40
c-420 -245 -1050 -605 -1058 -605 -8 0 -638 360 -1058 605 l-68 40 188 108
c103 59 356 205 562 323 323 187 377 214 395 205 11 -6 265 -152 564 -324z
m-1431 -737 c213 -123 466 -268 560 -323 l173 -99 0 -1523 c0 -1354 2 -1528
15 -1557 14 -28 99 -79 678 -407 l662 -375 2 -648 c2 -552 1 -646 -11 -642
-19 8 -2448 1407 -2463 1419 -10 8 -13 459 -13 2194 0 1201 2 2184 4 2184 3 0
179 -100 393 -223z m2093 -1185 c0 -1332 -1 -1410 -17 -1424 -19 -16 -1099
-638 -1108 -638 -3 0 -5 636 -5 1413 l0 1412 558 322 c306 177 560 322 564
323 4 0 8 -634 8 -1408z m2027 -1158 c301 -173 551 -318 556 -323 7 -7 -2435
-1411 -2467 -1419 -14 -3 -1119 622 -1123 635 -2 10 2469 1432 2479 1426 4 -2
253 -145 555 -319z m683 -1167 l0 -643 -1222 -704 c-673 -387 -1233 -710
-1245 -718 l-23 -14 0 653 1 654 1237 707 c680 388 1240 706 1245 707 4 1 7
-288 7 -642z"/>
</g>
</svg>
